<svg xmlns="http://www.w3.org/2000/svg" width="24" height="24" viewBox="0 0 24 24">
    <g fill="none" fill-rule="evenodd">
        <g>
            <path d="M0 0H24V24H0z"/>
            <g stroke="#FFF" transform="translate(3.111 5.778)">
                <rect width="16.778" height="11.444" x=".5" y=".5" rx="2"/>
                <g stroke-linecap="round">
                    <path d="M0 .5L.889.5M2.667.5L3.556.5M5.333.5L6.222.5M8 .5L8.889.5M10.667.5L11.556.5" transform="translate(3.111 3.111)"/>
                </g>
                <g stroke-linecap="round">
                    <path d="M0 .5L.889.5M2.667.5L3.556.5M5.333.5L6.222.5M8 .5L8.889.5M10.667.5L11.556.5" transform="translate(3.111 5.778)"/>
                </g>
                <g stroke-linecap="round">
                    <path d="M0 .5L.889.5M2.667.5L8.889.5M10.667.5L11.556.5" transform="translate(3.111 8.444)"/>
                </g>
            </g>
        </g>
    </g>
</svg>
