<svg xmlns="http://www.w3.org/2000/svg" width="24" height="24" viewBox="0 0 24 24">
    <defs>
        <filter id="aj2m2rhy3a" width="116.5%" height="121.3%" x="-8.2%" y="-10.6%" filterUnits="objectBoundingBox">
            <feOffset dy="8" in="SourceAlpha" result="shadowOffsetOuter1"/>
            <feGaussianBlur in="shadowOffsetOuter1" result="shadowBlurOuter1" stdDeviation="8"/>
            <feColorMatrix in="shadowBlurOuter1" result="shadowMatrixOuter1" values="0 0 0 0 0 0 0 0 0 0 0 0 0 0 0 0 0 0 0.16 0"/>
            <feMerge>
                <feMergeNode in="shadowMatrixOuter1"/>
                <feMergeNode in="SourceGraphic"/>
            </feMerge>
        </filter>
    </defs>
    <g fill="none" fill-rule="evenodd">
        <g>
            <g filter="url(#aj2m2rhy3a)" transform="translate(-470 -390) translate(8 8)">
                <g>
                    <g>
                        <path d="M0 0H24V24H0z" transform="translate(8 8) translate(454 374)"/>
                        <path fill="#FFF" fill-rule="nonzero" d="M4.26 15.71c.4 0 .77-.077 1.11-.23.34-.153.635-.388.885-.705.25-.317.445-.717.585-1.2.14-.483.21-1.055.21-1.715 0-.667-.07-1.242-.21-1.725-.14-.483-.335-.883-.585-1.2-.25-.317-.545-.552-.885-.705C5.03 8.077 4.66 8 4.26 8c-.393 0-.757.077-1.09.23-.333.153-.625.388-.875.705-.25.317-.445.717-.585 1.2-.14.483-.21 1.058-.21 1.725 0 .66.07 1.232.21 1.715.14.483.335.883.585 1.2.25.317.542.552.875.705.333.153.697.23 1.09.23zm0-1.16c-.173 0-.342-.04-.505-.12-.163-.08-.308-.223-.435-.43s-.228-.482-.305-.825c-.077-.343-.115-.782-.115-1.315 0-.533.038-.975.115-1.325.077-.35.178-.627.305-.83.127-.203.272-.347.435-.43.163-.083.332-.125.505-.125.18 0 .355.042.525.125.17.083.318.227.445.43.127.203.228.48.305.83.077.35.115.792.115 1.325 0 .533-.038.972-.115 1.315-.077.343-.178.618-.305.825-.127.207-.275.35-.445.43-.17.08-.345.12-.525.12zm4.62 1.16c.267 0 .487-.092.66-.275.173-.183.26-.412.26-.685 0-.273-.087-.502-.26-.685-.173-.183-.393-.275-.66-.275-.26 0-.477.092-.65.275-.173.183-.26.412-.26.685 0 .273.087.502.26.685.173.183.39.275.65.275zm4.33.04c.4 0 .773-.065 1.12-.195.347-.13.647-.313.9-.55.253-.237.452-.522.595-.855.143-.333.215-.7.215-1.1 0-.327-.053-.633-.16-.92-.107-.287-.263-.535-.47-.745-.207-.21-.463-.375-.77-.495s-.66-.18-1.06-.18c-.133 0-.272.005-.415.015-.143.01-.292.028-.445.055l.25-1.46h2.81V8.09H12c-.1.633-.307 1.88-.62 3.74l.84.25c.173-.06.352-.11.535-.15.183-.04.368-.067.555-.08.453-.013.798.093 1.035.32.237.227.355.54.355.94 0 .433-.122.783-.365 1.05s-.592.4-1.045.4c-.207 0-.39-.028-.55-.085-.16-.057-.293-.113-.4-.17-.107-.057-.205-.115-.295-.175-.09-.06-.218-.16-.385-.3l-.7 1.02c.127.12.273.233.44.34.167.107.345.202.535.285.19.083.392.15.605.2.213.05.437.075.67.075zm4.97-.18l.79-1.64c.093-.193.183-.388.27-.585.087-.197.177-.408.27-.635h.04c.113.227.215.438.305.635s.182.392.275.585l.83 1.64h1.64l-2.08-3.75 1.95-3.65h-1.56l-.7 1.52c-.08.173-.158.353-.235.54-.077.187-.162.397-.255.63h-.05c-.113-.233-.212-.443-.295-.63-.083-.187-.168-.367-.255-.54l-.74-1.52h-1.64l1.95 3.58-2.08 3.82h1.57z" transform="translate(8 8) translate(454 374)"/>
                    </g>
                </g>
            </g>
        </g>
    </g>
</svg>
